<svg xmlns="http://www.w3.org/2000/svg" width="35" height="34" viewBox="0 0 35 34" fill="#0E6688" >
  <g id="instagram" transform="translate(0 0)">
    <circle id="Elipse_28" data-name="Elipse 28" cx="3.262" cy="3.262" r="3.262" transform="translate(14.097 13.874)" />
    <path id="Caminho_259" data-name="Caminho 259" d="M29.384,19.2H21.229a4.051,4.051,0,0,0-2.891,1.038A4.051,4.051,0,0,0,17.3,23.129v8.155a4.086,4.086,0,0,0,1.112,2.965A4.179,4.179,0,0,0,21.3,35.287h8.081a4.051,4.051,0,0,0,2.891-1.038,3.8,3.8,0,0,0,1.112-2.891V23.2a4.179,4.179,0,0,0-1.038-2.891A3.969,3.969,0,0,0,29.384,19.2ZM25.307,32.248a5.041,5.041,0,1,1,5.042-5.041,5.041,5.041,0,0,1-5.042,5.041Zm5.264-9.119a1.186,1.186,0,1,1,1.186-1.186,1.171,1.171,0,0,1-1.187,1.186Z" transform="translate(-7.947 -10.081)" />
    <path id="Caminho_260" data-name="Caminho 260" d="M21.2,5.2a17.255,17.255,0,0,0-17.5,17,17.255,17.255,0,0,0,17.5,17,17.255,17.255,0,0,0,17.5-17,16.745,16.745,0,0,0-5.122-12.025A17.752,17.752,0,0,0,21.2,5.2Zm9.319,21.008a5.392,5.392,0,0,1-1.565,3.939A5.63,5.63,0,0,1,24.97,31.6H17.216a5.63,5.63,0,0,1-3.984-1.451,5.126,5.126,0,0,1-1.565-3.939v-7.6a5.035,5.035,0,0,1,1.534-3.9,5.352,5.352,0,0,1,4.015-1.49h7.825a5.33,5.33,0,0,1,3.974,1.511,5.015,5.015,0,0,1,1.5,3.88v7.6Z" transform="translate(-3.7 -5.2)" />
  </g>
</svg>
