<svg xmlns="http://www.w3.org/2000/svg" width="35" height="35" viewBox="0 0 35 35" fill="#0E6688" >
  <path id="Caminho_275" data-name="Caminho 275" d="M-84.667,79.438V72.606c0-3.66-1.954-5.364-4.559-5.364A3.931,3.931,0,0,0-92.8,69.21V67.522h-3.961c.052,1.118,0,11.916,0,11.916H-92.8V72.783a2.7,2.7,0,0,1,.131-.965,2.166,2.166,0,0,1,2.031-1.448c1.434,0,2.007,1.093,2.007,2.694v6.375h3.96ZM-100.93,65.9a2.067,2.067,0,0,0,2.241-2.06,2.059,2.059,0,0,0-2.215-2.058,2.066,2.066,0,0,0-2.241,2.058,2.051,2.051,0,0,0,2.189,2.06Zm6.441,22.8a17.5,17.5,0,0,1-17.5-17.5,17.5,17.5,0,0,1,17.5-17.5,17.5,17.5,0,0,1,17.5,17.5A17.5,17.5,0,0,1-94.489,88.691Zm-4.46-9.253V67.522h-3.96V79.438Z" transform="translate(111.989 -53.691)" />
</svg>
